<svg xmlns="http://www.w3.org/2000/svg" viewBox="0 0 24 24" fill="none" stroke="black" stroke-linecap="round" stroke-linejoin="round">
  <!-- CalendarIcon -->
  <path stroke-width="1.5" d="M6.75 3v2.25M17.25 3v2.25M3 18.75V7.5a2.25 2.25 0 0 1 2.25-2.25h13.5A2.25 2.25 0 0 1 21 7.5v11.25m-18 0A2.25 2.25 0 0 0 5.25 21h13.5A2.25 2.25 0 0 0 21 18.75"/>
  <!-- ArrowUturnLeftIcon scaled 50% and centered in the calendar body -->
  <g transform="translate(6, 7) scale(0.5)">
    <path stroke-width="3" d="M9 15 3 9m0 0 6-6M3 9h12a6 6 0 0 1 0 12h-3"/>
  </g>
</svg>
